<svg width="19" height="20" viewBox="0 0 19 20" fill="none" xmlns="http://www.w3.org/2000/svg">
<path opacity="0.5" fill-rule="evenodd" clip-rule="evenodd" d="M8.47773 0.524028C6.69973 0.708234 5.016 1.38603 3.58311 2.49439C3.17649 2.80891 2.30707 3.67813 1.99248 4.08467C1.41518 4.83066 0.859467 5.8247 0.54895 6.66689C0.37516 7.13821 0.155795 8.0128 0.0704415 8.57463C-0.0233887 9.19204 -0.0234988 10.5607 0.0702214 11.1794C0.154144 11.7336 0.376004 12.6145 0.551299 13.0895C0.864678 13.9389 1.41533 14.9243 1.99288 15.6694C2.29136 16.0545 3.12989 16.9023 3.5055 17.1988C4.26374 17.7973 5.29598 18.3805 6.16354 18.7005C6.63944 18.8761 7.52057 19.0978 8.07409 19.1813C8.61641 19.2631 10.025 19.2752 10.5327 19.2024C12.2999 18.9491 13.7928 18.3234 15.1747 17.2569C15.5518 16.9658 16.4002 16.1259 16.6999 15.747C17.2915 14.999 17.8881 13.9439 18.2026 13.0895C18.3779 12.6134 18.5996 11.7324 18.6833 11.1794C18.7334 10.8489 18.75 10.5242 18.75 9.87702C18.75 8.8846 18.6997 8.46247 18.4767 7.58169C18.2996 6.88221 18.1369 6.44193 17.7997 5.74971C17.0797 4.27148 15.965 3.00052 14.5692 2.06639C13.3982 1.28276 12.1426 0.799842 10.6978 0.577444C10.2366 0.506418 8.947 0.475417 8.47773 0.524028ZM10.129 1.62277C13.0087 1.88666 15.5585 3.65242 16.8273 6.26143C17.214 7.05673 17.4336 7.76024 17.5837 8.68469C17.6752 9.2482 17.6752 10.5058 17.5837 11.0694C17.4336 11.9938 17.214 12.6973 16.8273 13.4926C16.0085 15.1763 14.6799 16.5041 12.9913 17.3264C12.199 17.7122 11.4943 17.932 10.5694 18.0821C10.0053 18.1736 8.74759 18.1736 8.18417 18.082C6.59647 17.8239 5.21756 17.1994 4.01924 16.1957C2.19203 14.6652 1.08368 12.2795 1.08368 9.87702C1.08368 7.4735 2.1867 5.09874 4.01924 3.55703C5.72198 2.12451 7.94037 1.4222 10.129 1.62277ZM8.7346 4.9631C7.59708 5.11638 6.60509 5.62714 5.7906 6.47894C5.13291 7.16676 4.73274 7.93759 4.51165 8.94256C4.42146 9.35265 4.42146 10.4014 4.51165 10.8115C4.73274 11.8165 5.13291 12.5873 5.7906 13.2751C6.3701 13.8811 6.97157 14.274 7.72735 14.5401C8.33172 14.753 8.67328 14.8086 9.37677 14.8086C10.2245 14.8086 10.7603 14.6926 11.501 14.3489C12.1513 14.0472 12.929 13.4257 13.0149 13.1391C13.1 12.855 12.9018 12.5131 12.6217 12.4606C12.3932 12.4177 12.2533 12.4722 11.9912 12.706C11.4839 13.1585 10.903 13.4683 10.2618 13.6283C9.84596 13.7321 8.94542 13.7403 8.55113 13.6438C7.80588 13.4615 7.13762 13.0846 6.62461 12.5572C5.58977 11.4932 5.25973 9.97263 5.75996 8.57331C6.20115 7.3393 7.22686 6.43411 8.55113 6.11024C8.94542 6.01379 9.84596 6.02193 10.2618 6.12572C10.903 6.28571 11.4839 6.5955 11.9912 7.04804C12.2533 7.28188 12.3932 7.33632 12.6217 7.29347C12.7901 7.26189 12.9555 7.10032 13.0119 6.91229C13.0868 6.66227 13.0207 6.51699 12.6929 6.21095C12.0534 5.61382 11.2086 5.18778 10.3208 5.01461C9.95638 4.94355 9.08875 4.91537 8.7346 4.9631Z" fill="#F4F4F4"/>
</svg>
