<svg width="32" height="32" viewBox="0 0 32 32" fill="none" xmlns="http://www.w3.org/2000/svg">
<path fill-rule="evenodd" clip-rule="evenodd" d="M3.74853 0.0997851C2.33494 0.40351 1.14895 1.60114 0.851029 3.02566C0.716649 3.6682 0.716649 27.5867 0.851029 28.2292C1.08118 29.3296 1.84708 30.3269 2.83708 30.8151C3.74743 31.2641 3.45689 31.2477 10.5416 31.249L16.8771 31.25L17.1142 31.1167C17.2658 31.0314 17.3954 30.892 17.4741 30.7294C17.5951 30.4794 17.5968 30.3822 17.5809 24.6426C17.5648 18.8208 17.5645 18.8094 17.4363 18.6374C17.3657 18.5426 17.2148 18.4102 17.1008 18.3431C16.909 18.2301 16.7641 18.2196 15.14 18.2016L13.3863 18.1822V16.8743V15.5664H15.1767C17.7682 15.5664 17.5945 15.7701 17.5962 12.7287C17.5975 10.3179 17.6307 10.0351 18.0011 9.28213C18.31 8.65429 18.982 7.98204 19.6095 7.673C20.3381 7.31423 20.679 7.2692 22.6734 7.26797L24.4271 7.26694V8.57899V9.89104H22.7476C20.9215 9.89104 20.8178 9.90697 20.5118 10.2344C20.4216 10.3308 20.3187 10.4871 20.2831 10.5815C20.2419 10.6905 20.2182 11.5047 20.2183 12.809C20.2183 15.1027 20.2263 15.1521 20.6389 15.4279C20.8427 15.564 20.8768 15.5664 22.6366 15.5664H24.4271V16.8743V18.1822L22.6734 18.2016C21.0493 18.2196 20.9043 18.2301 20.7126 18.3431C20.5986 18.4102 20.4476 18.5426 20.3771 18.6374C20.2489 18.8094 20.2487 18.8203 20.2325 24.6691L20.2163 30.5284L20.3464 30.76C20.418 30.8873 20.5799 31.0497 20.7064 31.1207C20.9337 31.2486 20.9777 31.25 24.7404 31.249C29.0211 31.2477 29.0394 31.2462 29.9134 30.8151C30.9034 30.3269 31.6693 29.3296 31.8995 28.2292C32.0338 27.5867 32.0338 3.6682 31.8995 3.02566C31.5984 1.58649 30.41 0.397529 28.9715 0.0963677C28.3471 -0.0342882 4.35754 -0.0310538 3.74853 0.0997851ZM28.5143 1.89675C29.3602 2.05724 29.9391 2.63485 30.0989 3.47786C30.1845 3.92951 30.1845 27.3254 30.0989 27.777C29.9391 28.62 29.3602 29.1976 28.5143 29.3581C28.3262 29.3938 26.9157 29.4192 25.1203 29.4192H22.0481V24.7542V20.0891L23.8323 20.0705C25.8769 20.0491 25.9248 20.0381 26.1827 19.5317C26.3217 19.2588 26.3219 19.2551 26.3047 16.8077L26.2875 14.3571L26.0987 14.1226C25.9949 13.9937 25.8165 13.8554 25.7022 13.8154C25.5612 13.7659 24.9414 13.7414 23.7713 13.7391L22.0481 13.7357V12.7287V11.7218H23.8231C25.8143 11.7218 25.8987 11.7066 26.1493 11.3034C26.2871 11.0817 26.2875 11.0732 26.2875 8.56819C26.2875 6.11416 26.2845 6.05137 26.1599 5.88306C26.0897 5.78829 25.9393 5.64744 25.8255 5.57L25.6187 5.42927L22.9642 5.45002L20.3097 5.47083L19.7731 5.63713C17.8119 6.245 16.5006 7.58116 15.928 9.5554C15.8184 9.93333 15.8013 10.199 15.78 11.8591L15.7559 13.7357H14.0202C12.0773 13.7357 11.9965 13.7496 11.7016 14.1363L11.5869 14.3764L11.5086 16.8126C11.4844 20.2731 11.3094 20.0425 13.981 20.0705L15.7653 20.0891V24.7542V29.4192H10.1617C6.61845 29.4192 4.43787 29.3964 4.23102 29.3572C3.38839 29.1973 2.81104 28.6181 2.65061 27.7719C2.56588 27.325 2.56686 3.92493 2.65159 3.47786C2.80677 2.65926 3.39303 2.05724 4.18741 1.90077C4.57262 1.82486 28.1151 1.82101 28.5143 1.89675Z" fill="#F4F4F4"/>
</svg>
