<svg width="32" height="32" viewBox="0 0 32 32" fill="none" xmlns="http://www.w3.org/2000/svg">
<path fill-rule="evenodd" clip-rule="evenodd" d="M8.18822 0.0622863C7.16462 0.179676 5.96605 0.576225 5.04968 1.10072C2.68099 2.45635 1.11804 4.82722 0.817846 7.51979C0.72771 8.32858 0.72771 22.912 0.817846 23.7208C1.25541 27.6455 4.35361 30.7447 8.27719 31.1824C9.08573 31.2725 23.6648 31.2725 24.4733 31.1824C28.3969 30.7447 31.4951 27.6455 31.9326 23.7208C32.0228 22.912 32.0228 8.32858 31.9326 7.51979C31.4951 3.59502 28.3969 0.495889 24.4733 0.0581963C23.7551 -0.0218948 8.88978 -0.018171 8.18822 0.0622863ZM25.1066 2.0167C26.3747 2.36655 27.3516 2.92182 28.2107 3.78127C29.0695 4.6403 29.624 5.6161 29.9751 6.88633L30.1367 7.47077V15.6203V23.7698L29.9751 24.3542C29.624 25.6245 29.0695 26.6003 28.2107 27.4593C27.3519 28.3183 26.3764 28.873 25.1066 29.2243L24.5223 29.3859H16.3752H8.22819L7.64392 29.2243C6.37408 28.873 5.39857 28.3183 4.5398 27.4593C3.68103 26.6003 3.12648 25.6245 2.77534 24.3542L2.61374 23.7698V15.6203V7.47077L2.77534 6.88633C3.12606 5.61769 3.68103 4.64024 4.53644 3.78457C5.54973 2.77098 6.88652 2.09643 8.28921 1.89089C8.4906 1.86141 12.2254 1.84138 16.5888 1.84639L24.5223 1.85555L25.1066 2.0167ZM24.8274 4.06538C23.3413 4.2703 22.3241 5.71903 22.6828 7.11976C22.9383 8.11736 23.5678 8.74924 24.5591 9.00331C26.2351 9.43282 27.8843 7.91079 27.6048 6.19261C27.4491 5.23561 26.7502 4.4322 25.8344 4.15743C25.5681 4.07758 25.0695 4.03198 24.8274 4.06538ZM25.5118 6.01296C25.8395 6.21734 25.8937 6.72792 25.6184 7.01538C25.3977 7.24582 25.119 7.29985 24.838 7.16653C24.4114 6.96398 24.3196 6.40438 24.6603 6.08334C24.914 5.84447 25.2033 5.82054 25.5118 6.01296ZM15.1991 7.16787C11.8231 7.62815 8.97509 10.1706 8.11279 13.494C7.35593 16.4108 8.20292 19.483 10.3583 21.639C13.7169 24.9986 19.0336 24.9986 22.3922 21.639C25.7506 18.2795 25.7506 12.9584 22.3922 9.60222C20.4645 7.67589 17.8824 6.80203 15.1991 7.16787ZM17.3517 8.99397C18.8159 9.21605 20.063 9.84536 21.1057 10.8884C23.7321 13.5157 23.7321 17.7249 21.1057 20.3521C18.4792 22.9794 14.2713 22.9794 11.6448 20.3521C9.01836 17.7249 9.01836 13.5157 11.6448 10.8884C13.1635 9.36927 15.253 8.67568 17.3517 8.99397Z" fill="#F4F4F4"/>
</svg>
