<svg width="32" height="32" viewBox="0 0 32 32" fill="none" xmlns="http://www.w3.org/2000/svg">
<path fill-rule="evenodd" clip-rule="evenodd" d="M30.5363 0.154454C29.5316 0.568982 1.42727 13.1196 1.23878 13.238C0.992195 13.3928 0.750244 13.862 0.750244 14.1854C0.750244 14.3056 0.812075 14.544 0.887578 14.7153L1.02491 15.0267L5.05336 17.3291C8.72718 19.4287 9.10866 19.6314 9.38699 19.6318C9.70786 19.6323 9.49069 19.7705 16.4368 15.147C16.6243 15.0221 16.5132 15.1379 14.2764 17.3994C13.2824 18.4043 12.4245 19.327 12.3535 19.4676C12.2262 19.7194 12.2252 19.7627 12.2252 25.0707C12.2252 30.1853 12.2303 30.4314 12.341 30.6795C12.5783 31.2112 13.2678 31.4216 13.6963 31.0928C13.8548 30.9712 16.956 26.396 17.2212 25.8925C17.2563 25.8259 18.3649 26.5174 21.4153 28.5087L25.5618 31.2154L25.9388 31.2163C26.3726 31.2172 26.5903 31.0788 26.7704 30.688C26.8802 30.4497 32.0022 1.41912 32.0002 1.04653C31.9985 0.724535 31.7512 0.316357 31.454 0.144823C31.1159 -0.0502983 31.0304 -0.0493911 30.5363 0.154454ZM27.4794 15.6714C26.2627 22.6095 25.2503 28.3089 25.2297 28.3368C25.209 28.3648 23.4275 27.239 21.2708 25.8351C18.5604 24.0708 17.2758 23.2713 17.111 23.246C16.9413 23.22 16.7963 23.252 16.6088 23.3568C16.3873 23.4806 16.1724 23.7676 15.2618 25.1554L14.1784 26.8068L14.1819 23.6383L14.1855 20.47L19.7425 14.8522C22.7988 11.7624 25.3631 9.14023 25.4408 9.02509C25.6523 8.71161 25.6878 8.36659 25.5462 8.00056C25.3265 7.43285 24.8563 7.14394 24.4198 7.30863C24.3077 7.35099 20.8669 9.61185 16.7736 12.3329L9.33132 17.2801L6.75177 15.806C5.24178 14.9431 4.2039 14.3116 4.24864 14.283C4.29058 14.2561 6.94709 13.0649 10.152 11.6357C13.3568 10.2066 19.0553 7.66524 22.8151 5.98821C26.575 4.31125 29.6603 2.96564 29.6714 2.99802C29.6825 3.0304 28.6961 8.73345 27.4794 15.6714Z" fill="#F4F4F4"/>
</svg>
