<svg width="75" height="77" viewBox="0 0 75 77" fill="none" xmlns="http://www.w3.org/2000/svg">
<path d="M75 38C75 58.7107 58.2107 75.5 37.5 75.5C16.7893 75.5 0 58.7107 0 38C0 17.2893 16.7893 0.5 37.5 0.5C58.2107 0.5 75 17.2893 75 38Z" fill="white"/>
<path d="M74.8571 38.625C74.8571 59.3357 58.0677 76.125 37.3571 76.125C16.6464 76.125 0.169983 58.7107 0.169983 38C0.169983 33.6581 0.93772 31.3927 3.75 29.25C16.875 19.25 35.3838 51.75 51.7525 51.75C72.4632 51.75 74.8571 17.9143 74.8571 38.625Z" fill="#6680B0"/>
<path d="M22.5 51.75C22.5 53.1307 21.3807 54.25 20 54.25C18.6193 54.25 17.5 53.1307 17.5 51.75C17.5 50.3693 18.6193 49.25 20 49.25C21.3807 49.25 22.5 50.3693 22.5 51.75Z" fill="white"/>
<path d="M40 27.375C40 29.7912 38.0412 31.75 35.625 31.75C33.2088 31.75 31.25 29.7912 31.25 27.375C31.25 24.9588 33.2088 23 35.625 23C38.0412 23 40 24.9588 40 27.375Z" fill="#6680B0"/>
<path d="M38.75 26.75C38.75 26.4217 38.6853 26.0966 38.5597 25.7933C38.4341 25.49 38.2499 25.2144 38.0178 24.9822C37.7856 24.7501 37.51 24.5659 37.2067 24.4403C36.9034 24.3147 36.5783 24.25 36.25 24.25V25.5C36.4142 25.5 36.5767 25.5323 36.7284 25.5951C36.88 25.658 37.0178 25.75 37.1339 25.8661C37.25 25.9822 37.342 26.12 37.4049 26.2716C37.4677 26.4233 37.5 26.5858 37.5 26.75H38.75Z" fill="white"/>
<path d="M55 42.375C55 44.1009 53.6009 45.5 51.875 45.5C50.1491 45.5 48.75 44.1009 48.75 42.375C48.75 40.6491 50.1491 39.25 51.875 39.25C53.6009 39.25 55 40.6491 55 42.375Z" fill="#6680B0"/>
<path d="M53.75 41.75C53.75 41.5858 53.7177 41.4233 53.6548 41.2716C53.592 41.12 53.5 40.9822 53.3839 40.8661C53.2678 40.75 53.13 40.658 52.9784 40.5952C52.8267 40.5323 52.6642 40.5 52.5 40.5V41.125C52.5821 41.125 52.6633 41.1412 52.7392 41.1726C52.815 41.204 52.8839 41.25 52.9419 41.3081C53 41.3661 53.046 41.435 53.0774 41.5108C53.1088 41.5867 53.125 41.6679 53.125 41.75H53.75Z" fill="white"/>
</svg>
