<svg width="32" height="32" viewBox="0 0 32 32" fill="none" xmlns="http://www.w3.org/2000/svg">
<g clip-path="url(#clip0_603_210)">
<path d="M15.3906 6.03889C13.7344 6.02327 12.4844 6.10139 11.4375 6.64045C11.0078 6.8592 10.7031 7.14045 10.4688 7.46858C10.3438 7.63264 10.2266 7.78108 10.1719 8.12483C10.1406 8.28889 10.1172 8.56233 10.2891 8.8592C10.461 9.16389 10.8281 9.36702 11.0781 9.40608C11.2656 9.42952 11.6641 9.59358 11.7344 9.68733C11.8985 9.9217 11.961 10.0936 11.9844 10.1873C12.0078 10.2811 12 10.2186 12 10.2186V10.3123C12 10.3123 12.0625 11.2967 12.0235 12.3123C12 12.8123 11.9531 13.3358 11.875 13.6873C11.7969 14.0389 11.6016 14.1248 11.8828 13.9608C11.6875 14.078 11.7578 14.1248 11.5156 13.9998C11.2656 13.8826 10.6172 13.3358 9.76564 11.8045C8.91408 10.2655 8.29689 9.46858 8.15627 9.2967C8.10158 9.14045 7.96877 8.82014 7.51564 8.46858C6.9297 8.01545 6.32814 8.00764 6.32814 8.00764L6.27345 7.99983H1.90627C1.90627 7.99983 1.65627 8.00764 1.3672 8.07014C1.07814 8.13264 0.664078 8.20295 0.273454 8.68733H0.265642C-0.132797 9.19514 -0.0624844 9.65608 -0.0312344 9.93733C0.00782811 10.2264 0.0937656 10.453 0.0937656 10.453L0.109391 10.4998L0.132828 10.5467C0.132828 10.5467 3.46877 17.6639 7.45314 21.9998C11.1953 26.078 15.5313 25.9998 15.5313 25.9998H17.9922L18.0469 25.992C18.0469 25.992 18.836 26.0311 19.5 25.2889C19.836 24.9061 19.9141 24.5467 19.9531 24.2811C20 24.0076 20 23.7889 20 23.7889V23.8514C20 23.8514 20.0313 23.3358 20.1719 22.7967C20.2422 22.5311 20.3438 22.2655 20.4375 22.117C20.4844 22.0311 20.4844 22.0545 20.5 22.0311C20.6719 22.1561 20.9531 22.4451 21.25 22.8123C21.8594 23.5389 22.5469 24.5467 23.5078 25.242C24.2031 25.7342 24.8594 25.953 25.3594 26.0311C25.6953 26.0858 25.9375 26.078 26.1016 26.0623L29.5 25.9998H29.5313C29.5313 25.9998 30.2344 25.9842 30.9375 25.5389C31.2813 25.3201 31.6797 24.9217 31.8125 24.3514C31.9531 23.7811 31.7969 23.1639 31.4688 22.5936C31.5781 22.7889 31.4453 22.5311 31.3438 22.328C31.2422 22.1248 31.086 21.8514 30.8516 21.5076C30.3985 20.8358 29.6485 19.8905 28.4063 18.6873C27.8203 18.1248 27.4453 17.8123 27.211 17.5936C27.2813 17.492 27.2891 17.4842 27.5547 17.1717C27.9766 16.6795 28.5938 15.953 29.375 14.867C30.3125 13.5545 30.9922 12.4842 31.4297 11.5936C31.8672 10.7108 32.2188 9.97639 31.8281 9.07014C31.6172 8.57795 31.2422 8.39045 30.9688 8.27327C30.6875 8.15608 30.4375 8.1092 30.2031 8.07014C29.7422 7.99983 29.336 7.99983 29.336 7.99983L25.375 8.03108C25.2578 8.00764 24.8047 7.9217 24.2188 8.2967C23.6406 8.65608 23.5078 9.03889 23.4766 9.15608C23.3828 9.28889 22.7266 10.2186 21.8125 11.8436C20.8906 13.4842 20.2656 13.9295 20.1875 13.9686C20.1641 13.9451 20.211 13.953 20.1016 13.8905C20.0547 13.8514 20.0078 13.8201 19.9688 13.3983C19.9375 12.9764 19.9766 12.3123 19.9766 11.5311C19.9766 9.85139 20.125 8.97639 20.0391 8.14045C20 7.71858 19.8281 7.20295 19.4531 6.8592C19.0781 6.52327 18.6719 6.39827 18.25 6.28889C17.586 6.12483 16.6875 6.05452 15.3906 6.03889ZM15.375 8.03889C16.586 8.05451 17.4375 8.14826 17.75 8.22639C18.0156 8.2967 18.0547 8.32795 18.0469 8.31233C18.0469 8.32795 18.0469 8.32014 18.0469 8.34358C18.0781 8.67952 17.9766 9.75764 17.9766 11.5311C17.9766 12.2264 17.9219 12.8983 17.9766 13.5701C18.0313 14.242 18.2735 15.0623 18.9844 15.5467H18.9922C18.9063 15.492 19.8906 16.2264 20.8281 15.8905C21.7656 15.5467 22.5078 14.6873 23.5625 12.8201C24.4844 11.1639 25.1641 10.2342 25.1641 10.2342L25.2266 10.1405L25.2735 10.0467C25.2735 10.0467 25.2578 10.0389 25.2735 10.0311L29.336 9.99983C29.336 9.99983 29.6172 9.99983 29.8906 10.0467C29.8985 10.0467 29.9063 10.0467 29.9141 10.0467C29.875 10.0623 29.9063 10.1639 29.6328 10.7186C29.2813 11.4295 28.6485 12.4451 27.75 13.703C27.0078 14.7264 26.4531 15.3905 26.0391 15.8748C25.625 16.3514 25.3125 16.578 25.1094 17.203C25.0078 17.5076 25.0313 17.9608 25.1797 18.2655C25.3203 18.5623 25.4922 18.7264 25.6641 18.8905C26.0078 19.2186 26.4141 19.5389 27.0078 20.1248C28.1719 21.2498 28.8281 22.078 29.1953 22.6248C29.3828 22.9061 29.4922 23.1014 29.5625 23.242C29.6328 23.3826 29.586 23.328 29.7422 23.5936C29.875 23.8358 29.8516 23.867 29.8516 23.8514C29.7188 23.9295 29.3828 23.9998 29.375 23.9998L25.9766 24.0623L25.8828 24.0858C25.8828 24.0858 25.8906 24.0936 25.6797 24.0623C25.461 24.0233 25.1172 23.9295 24.6797 23.617C24.1406 23.2342 23.461 22.3436 22.7891 21.5311C22.461 21.1326 22.125 20.742 21.7031 20.4295C21.2813 20.117 20.6172 19.828 19.9375 20.0545C19.3516 20.242 18.9688 20.6717 18.7266 21.0701C18.4844 21.4764 18.3438 21.8983 18.2344 22.2811C18.0313 23.0545 18 23.7498 18 23.7498V23.8123C18 23.8123 18 23.8592 17.9844 23.9295C17.9453 23.9451 17.8906 23.9842 17.8594 23.9998H15.4688C15.4688 23.9998 12.1641 24.1717 8.92189 20.6561C5.45314 16.867 2.3672 10.5311 2.10939 9.99983H6.13283C6.17189 10.0155 6.31252 10.0701 6.29689 10.0623C6.20314 9.9842 6.34377 10.1561 6.34377 10.1561L6.40627 10.3045L6.51564 10.4295C6.51564 10.4295 7.13283 11.1795 8.01564 12.7733C8.96095 14.4842 9.75783 15.3748 10.6485 15.8045C11.5391 16.2342 12.4766 15.9295 12.875 15.703C13.6172 15.2733 13.7031 14.6717 13.8281 14.117C13.9531 13.5623 13.9922 12.9686 14.0156 12.3905C14.0625 11.2811 14 10.3358 14 10.2655C13.9922 10.242 13.9922 9.96858 13.9141 9.6717C13.8281 9.36702 13.6719 8.96858 13.375 8.5467C13.25 8.37483 13.1328 8.46077 13 8.33577C13.5547 8.17952 14.1485 8.02326 15.375 8.03889Z" fill="#F4F4F4"/>
</g>
<defs>
<clipPath id="clip0_603_210">
<rect width="32" height="32" fill="white"/>
</clipPath>
</defs>
</svg>
